<?xml version="1.0" encoding="UTF-8"?>
<svg width="142px" height="42px" viewBox="0 0 142 42" version="1.1" xmlns="http://www.w3.org/2000/svg" xmlns:xlink="http://www.w3.org/1999/xlink">
    <!-- Generator: Sketch 47.1 (45422) - http://www.bohemiancoding.com/sketch -->
    <title>Artboard</title>
    <desc>Created with Sketch.</desc>
    <defs></defs>
    <g id="Page-1" stroke="none" stroke-width="1" fill="none" fill-rule="evenodd">
        <g id="arsoftlogo-Blue" transform="translate(-95.000000, -41.000000)">
            <path d="M101.276,42.406 L231.074,42.406 C233.6114,42.406 235.68778,44.48198 235.68778,47.01978 L235.68778,77.16228 C235.68778,79.70008 233.6114,81.77606 231.074,81.77606 L101.276,81.77606 C98.7382,81.77606 96.66222,79.70008 96.66222,77.16228 L96.66222,47.01978 C96.66222,44.48198 98.7382,42.406 101.276,42.406 Z M103.4508,47.24694 L228.8988,47.24694 C229.612186,47.24694 230.261,47.539066 230.73148,48.009538 L230.733448,48.009538 C231.20392,48.48001 231.496046,49.130008 231.496046,49.844578 L231.496046,74.337478 C231.496046,75.052045 231.20392,75.702048 230.733448,76.172518 L230.73148,76.172518 C230.261008,76.64299 229.61219,76.935116 228.8988,76.935116 L103.4508,76.935116 C102.737414,76.935116 102.0886,76.64299 101.61773,76.172518 L101.615761,76.172518 C101.145683,75.702046 100.853556,75.052048 100.853556,74.337478 L100.853556,49.844578 C100.853556,49.130011 101.145682,48.480008 101.615761,48.009538 L101.61773,48.009538 C102.088596,47.539066 102.73742,47.24694 103.4508,47.24694 L103.4508,47.24694 Z M228.8988,48.245759 L103.4508,48.245759 C103.010643,48.245759 102.611036,48.425287 102.32088,48.714657 L102.322061,48.7154444 C102.031904,49.0056014 101.851982,49.4056014 101.851982,49.8445744 L101.851982,74.3374744 C101.851982,74.7764504 102.031903,75.1764504 102.322061,75.4666044 L102.32088,75.4673918 C102.611037,75.7567618 103.010644,75.9362898 103.4508,75.9362898 L228.8988,75.9362898 C229.338957,75.9362898 229.738564,75.7567618 230.02872,75.4673918 L230.027539,75.4666044 C230.317303,75.1764474 230.497618,74.7764474 230.497618,74.3374744 L230.497618,49.8445744 C230.497618,49.4055984 230.317303,49.0055984 230.027539,48.7154444 L230.02872,48.714657 C229.738563,48.425287 229.338956,48.245759 228.8988,48.245759 Z" id="_4747664" fill="#0983BC"></path>
            <path d="M129.179,70.609 L127.72309,72.84443 C126.38057,72.725139 125.3849,72.444036 124.73018,72.010572 C123.885692,71.447974 123.46364,70.555062 123.46364,69.336952 L123.46364,64.271202 C122.895136,64.590493 121.96443,64.898761 120.65419,65.207422 C119.37151,65.50506 118.4408,65.829863 117.86718,66.165296 C117.288046,66.506635 117.001038,67.118052 117.001038,68.005846 C117.001038,69.710566 118.148678,70.597976 120.443558,70.668446 C121.265999,70.6034854 122.093948,70.462934 122.916788,70.246399 L121.001038,72.654669 C120.340408,72.7357714 119.799468,72.779472 119.371508,72.779472 C117.103788,72.779472 115.474658,72.03774 114.478988,70.549552 C114.019145,69.86215 113.791586,69.125932 113.791586,68.330652 C113.791586,66.582222 114.754972,65.272382 116.676236,64.401122 C117.233716,64.151909 118.040016,63.903091 119.095926,63.659783 L121.601436,63.091279 C122.819546,62.809783 123.430966,62.165688 123.430966,61.153479 C123.430966,60.488125 123.05695,59.979859 122.316006,59.627499 C121.725849,59.34679 119.982936,59.050727 119.241596,59.050727 C117.942776,59.050727 116.481356,59.472774 114.857736,60.316867 L116.995536,57.069627 C117.239237,57.069627 117.602229,57.039312 118.083336,56.977501 C118.570738,56.9149026 118.933336,56.8802569 119.176646,56.8802569 C121.677036,56.8802569 124.541216,57.7436429 125.612476,59.1672669 C126.169956,59.9082119 126.451059,60.8503369 126.451059,61.9979769 L126.451059,67.6483669 C126.451059,68.6767169 126.651453,69.4074269 127.051846,69.8460069 C127.447122,70.2841959 128.161296,70.5385269 129.179016,70.6089989 L129.179,70.609 Z M139.2514,60.1468 C138.953762,59.757036 138.412424,59.562154 137.62227,59.562154 C137.173057,59.562154 136.729357,59.6275083 136.29077,59.757036 C134.9266,60.173965 134.2451,61.548766 134.2451,63.881446 L134.2451,69.661756 C134.2451,70.939316 134.667147,71.810576 135.51675,72.264906 L135.51675,72.389709 L130.06124,72.389709 L130.06124,72.264906 C130.856909,71.853882 131.2573,71.009396 131.2573,69.726716 L131.2573,60.406636 C131.2573,59.627502 131.208481,59.075136 131.105725,58.761356 C130.948638,58.257813 130.602575,57.851907 130.061235,57.543636 L130.061235,57.418833 L130.899818,57.418833 C131.045881,57.418833 131.241157,57.4137149 131.489975,57.4026913 L132.242337,57.3704078 C132.507691,57.3593842 132.832494,57.3432424 133.205723,57.3271007 C133.61714,57.2782818 133.92029,57.1810377 134.12029,57.0345807 L134.245093,57.0345807 L134.245093,59.4648907 C134.732101,58.5176467 135.430133,57.8684307 136.339583,57.5054407 C137.037614,57.2294567 138.006513,57.0944167 139.251393,57.0944167 L139.251393,60.1467767 L139.2514,60.1468 Z M166.3349,72.3897 L160.68451,72.3897 L160.68451,72.264897 C161.528604,71.810566 161.95065,70.901117 161.95065,69.537337 L161.95065,64.536547 C161.95065,60.920797 160.70577,59.123947 158.2164,59.145607 C156.79278,59.1562369 155.78609,59.65978 155.21246,60.660957 C154.768366,61.429461 154.565216,62.593637 154.546712,64.146787 L154.481751,69.537337 C154.573877,70.955447 155.017578,71.864507 155.813251,72.264897 L155.813251,72.3897 L150.362861,72.3897 L150.362861,72.264897 C151.207349,71.71844 151.629401,70.895997 151.629401,69.791667 L151.629401,64.271197 C151.629401,62.344027 151.12074,60.909777 150.097901,59.962927 C149.529397,59.432218 148.814831,59.161746 147.959711,59.145604 C146.736481,59.1239505 145.794751,59.508202 145.129401,60.303874 C144.506566,61.040094 144.192787,62.024744 144.192787,63.264504 L144.192787,69.602304 C144.192787,70.960964 144.593181,71.848364 145.388847,72.264904 L145.388847,72.389707 L139.998297,72.389707 L139.998297,72.264904 C140.864045,71.805061 141.297117,71.149944 141.297117,70.311364 L141.297117,60.081864 C141.297117,58.826354 140.864046,57.981864 139.998297,57.543674 L139.998297,57.418871 C140.977825,57.418871 141.638457,57.4405245 141.979007,57.4842253 C143.051057,57.4243828 143.760107,57.2783193 144.122317,57.0346193 L144.19279,57.0346193 L144.19279,59.5621793 C145.2483,57.8574593 146.81759,57.0129693 148.90145,57.0346193 C151.05027,57.0562728 152.71208,57.9873753 153.89712,59.8220193 C155.15814,57.9924893 156.7983,57.0617793 158.80618,57.0346193 C161.02508,57.0023358 162.61642,57.5653283 163.56917,58.7125693 C164.44043,59.7625693 164.87901,61.4188693 164.87901,63.6865893 L164.87901,69.9865893 C164.87901,71.1991893 165.366018,71.9566693 166.33492,72.2649393 L166.33492,72.3897423 L166.3349,72.3897 Z M179.4873,67.68104 C179.4873,69.89994 178.20423,71.4208 175.63336,72.24876 C174.52942,72.600729 173.40895,72.779469 172.27785,72.779469 C170.70816,72.779469 169.2684,72.519626 167.95856,71.999941 L166.8873,68.855451 C167.704229,69.40742 168.65147,69.84049 169.72864,70.154661 C170.90305,70.495212 171.94242,70.668441 172.83533,70.668441 C173.69596,70.668441 174.45344,70.544032 175.10305,70.295213 C175.996357,69.953874 176.47234,69.429071 176.5373,68.720013 C176.5373,67.658993 175.66604,66.825923 173.92313,66.203473 C173.473917,66.046386 172.59715,65.737725 171.30384,65.277882 C170.24282,64.893236 169.35502,64.379457 168.64597,63.735362 C168.018411,63.156228 167.704238,62.360562 167.704238,61.348352 C167.704238,59.345592 168.835738,58.036152 171.097938,57.429852 C172.082977,57.164891 173.122348,57.034576 174.231798,57.034576 C175.633368,57.034576 176.802668,57.164891 177.733768,57.42434 L177.733768,60.21174 C176.553848,59.540874 175.178648,59.20505 173.609358,59.20505 C171.660928,59.20505 170.686528,59.757019 170.686528,60.86135 C170.778654,61.575523 171.509363,62.14954 172.889678,62.59324 C174.269598,63.031823 175.627868,63.524342 176.959758,64.0708 C178.642828,64.763713 179.487318,65.9708 179.487318,67.68104 L179.4873,67.68104 Z M197.2507,64.796 C197.2507,67.06411 196.406212,68.96923 194.71212,70.52238 C193.06684,72.02671 191.09677,72.77947 188.807,72.77947 C186.25818,72.77947 184.22275,71.978289 182.69676,70.37632 C181.24085,68.85545 180.52629,67.04758 180.55345,64.95309 C180.591245,61.97081 181.8688,59.72986 184.38534,58.23065 C185.68967,57.457028 187.27038,57.05624 189.1318,57.03459 C190.54991,57.0184483 191.88141,57.33774 193.13731,57.992464 C194.43062,58.664118 195.43731,59.594824 196.15739,60.774744 C196.887705,61.976314 197.2507,63.318444 197.2507,64.796004 L197.2507,64.796 Z M193.90582,65.27789 C193.90582,63.63773 193.445584,62.22002 192.52551,61.02907 C191.52433,59.74088 190.26331,59.11293 188.73693,59.14561 C187.01055,59.1834053 185.66803,59.919626 184.70465,61.34837 C184.158193,62.165693 183.876697,63.23183 183.865674,64.53656 C183.855044,66.07869 184.282603,67.459 185.143234,68.67121 C186.095596,70.01373 187.313314,70.70113 188.807014,70.73341 C188.893628,70.6956147 188.980242,70.6739612 189.061738,70.6684494 C191.161738,70.597977 192.601498,69.6672694 193.380638,67.8704194 C193.732213,67.0747504 193.905835,66.2086094 193.905835,65.2778994 L193.90582,65.27789 Z M208.99522,50.49679 L206.76018,52.97553 C206.170023,52.645215 205.54207,52.48301 204.8712,52.48301 C203.46372,52.48301 202.76018,53.349152 202.76018,55.08104 L202.76018,57.41884 L206.49483,57.41884 L207.084987,57.224352 L207.209003,57.224352 L207.209003,60.087342 L207.084987,60.087342 C206.879081,59.735373 206.392074,59.562145 205.612547,59.562145 L202.760187,59.562145 L202.760187,68.205845 C202.760187,69.781045 202.922392,70.852695 203.241683,71.431825 C203.447589,71.788912 203.750738,72.086549 204.156644,72.324738 L204.156644,72.3896986 L198.576334,72.3896986 L198.576334,72.2648956 C199.372003,71.8645016 199.772794,71.1070256 199.772794,69.9865456 L199.772794,59.5621456 L198.219254,59.5621456 L199.772794,57.4188356 L199.772794,55.2704056 C199.772794,53.1920556 200.974364,51.7306456 203.372004,50.9026856 C204.400354,50.5507166 205.428694,50.3719766 206.462554,50.3719766 C206.94405,50.3719766 207.788534,50.4152837 208.995234,50.4967796 L208.99522,50.49679 Z M217.54168,70.34369 L215.82042,72.6496 C215.512152,72.6929071 215.068058,72.7145606 214.48892,72.7145606 C213.03301,72.7145606 211.93971,72.2058996 211.20388,71.1826706 C210.554274,70.2897576 210.229471,69.0933006 210.229471,67.5834606 L210.229471,59.5622006 L208.026711,59.5622006 L208.026711,58.3661406 C210.603091,58.0090536 211.890881,56.0929106 211.890881,52.6181106 L213.157421,52.6181106 L213.157421,57.4189006 L215.560571,57.4189006 C216.577891,57.4189006 217.216871,57.35394 217.476711,57.2244126 L217.541672,57.2244126 L217.541672,60.2118126 L217.476711,60.2118126 C217.108601,59.7791356 216.491672,59.5622066 215.625531,59.5622066 L213.157421,59.5622066 L213.157421,66.2519666 C213.157421,68.3358266 213.601515,69.6673166 214.488921,70.2464566 C214.813724,70.4629916 215.344433,70.5980316 216.080261,70.6685036 C216.762151,70.5818894 217.249551,70.4685036 217.541681,70.3437006 L217.54168,70.34369 Z" id="_4747616" fill="#FEFEFE" fill-rule="nonzero"></path>
        </g>
        <g id="Artboard"></g>
    </g>
</svg>