<?xml version="1.0" encoding="UTF-8"?>
<svg width="1000px" height="1000px" viewBox="0 0 1000 1000" version="1.1" xmlns="http://www.w3.org/2000/svg" xmlns:xlink="http://www.w3.org/1999/xlink">
    <!-- Generator: Sketch 41.2 (35397) - http://www.bohemiancoding.com/sketch -->
    <title>Logo_we do software</title>
    <desc>Created with Sketch.</desc>
    <defs></defs>
    <g id="Page-1" stroke="none" stroke-width="1" fill="none" fill-rule="evenodd">
        <g id="Logo_we-do-software">
            <g id="SFL-logo" transform="translate(172.000000, 315.000000)">
                <path d="M204.141859,218.954383 L78.601449,218.954383 C58.2457343,218.954383 38.7389082,206.767417 46.6536496,180.972788 L74.642317,103.885027 C77.1925052,93.111706 85.1037243,85.7438265 95.2868652,83.1950337 L95.2868652,82.9094843 L281.890897,82.9094843 C274.257944,102.178781 268.037457,133.924118 243.4373,133.924118 L119.034612,133.924118 C118.471034,134.209667 117.903935,134.773716 117.336835,135.059265 L105.462961,167.936224 L231.281637,167.936224 C251.637352,167.936224 271.147701,180.12319 262.95117,205.917819 L234.958981,283.280554 C232.130526,293.778901 224.497573,301.707304 214.599744,303.981123 L27.9921898,303.981123 C35.3468761,284.9868 41.5638404,252.962964 66.1639981,252.962964 L190.566686,252.962964 C191.130263,252.68094 191.697363,252.113366 192.260941,251.827817 L204.141859,218.954383" id="Fill-1" fill="#1B1A18"></path>
                <path d="M240.045268,304.263147 L312.144441,103.885027 C314.687585,93.111706 322.891159,85.7438265 332.781945,83.1950337 L332.781945,82.9094843 L519.396543,82.9094843 C511.760068,102.178781 505.82137,133.924118 481.221212,133.924118 L361.908334,133.924118 C361.334189,134.209667 360.777657,134.773716 360.207034,135.059265 L297.723902,304.263147 L240.045268,304.263147" id="Fill-2" fill="#1B1A18"></path>
                <path d="M434.567563,167.936224 C426.938132,187.209046 421.002957,218.954383 396.117488,218.954383 L337.022865,218.954383 C344.65934,199.681561 350.886872,167.936224 375.479985,167.936224 L434.567563,167.936224" id="Fill-3" fill="#1B1A18"></path>
                <path d="M452.380134,304.263147 L520.241909,116.071993 C526.177085,100.197561 534.377137,83.7626072 551.062554,82.9094843 L588.942006,82.9094843 C566.892037,139.025229 547.945266,195.994096 527.878384,252.68094 L655.391315,252.68094 C647.75484,271.946711 641.809098,303.981123 616.941241,303.981123 L452.380134,304.263147" id="Fill-4" fill="#1B1A18"></path>
                <path d="M82.2787921,0.717086747 L82.2787921,0.717086747 C104.895862,0.717086747 125.536887,10.0661855 140.521004,24.8089952 C151.267722,35.8678651 159.182464,49.7469759 162.574496,65.3393831 L139.957427,65.3393831 C137.128972,55.986759 131.757374,47.2017084 124.97331,40.3978771 C113.948325,29.3460578 98.9571636,22.8277759 82.2787921,22.8277759 C65.6004206,22.8277759 50.6163039,29.3460578 39.5842744,40.3978771 C28.5557673,51.4532217 22.0570143,66.4710048 22.0570143,83.1950337 C22.0570143,99.9190627 28.5557673,114.936846 39.5842744,125.988665 C41.5638404,127.691386 43.5469287,129.672605 45.5229723,131.089776 C43.2616176,138.175631 41.0002629,145.543511 38.7389082,152.914916 C33.3637878,149.795024 28.5557673,145.82906 24.0330579,141.295523 C9.33072992,126.556239 0,105.866246 0,83.1950337 C0,60.5202964 9.33072992,39.8338289 24.0330579,24.8089952 C39.0171745,10.0661855 59.6617227,0.717086747 82.2787921,0.717086747 L82.2787921,0.717086747 Z M82.2787921,34.7291928 L82.2787921,34.7291928 C95.5651316,34.7291928 107.724316,40.3978771 116.487946,48.8973783 C121.0177,53.7199904 124.687999,59.3886747 127.234665,65.3393831 C116.20968,65.6214072 107.442527,65.6214072 102.070929,65.6214072 C101.503829,65.3393831 101.225563,64.7682843 100.940252,64.4897855 C96.1322314,59.6671735 89.6264337,56.8328313 82.2787921,56.8328313 C74.9276281,56.8328313 68.4253528,59.6671735 63.6173323,64.4897855 C58.8093117,69.305347 55.9843795,75.8271542 55.9843795,83.1950337 C55.9843795,87.1609976 56.8332682,90.8449373 58.2457343,94.2433277 C56.2696907,99.6335133 53.4412361,108.418564 49.7638929,118.90281 C49.2003154,118.335236 48.6332156,117.771188 48.0661157,117.20714 C39.3024857,108.700588 33.9308876,96.5136217 33.9308876,83.1950337 C33.9308876,69.8693952 39.5842744,57.6859542 48.0661157,48.8973783 C56.8332682,40.115853 68.9924526,34.7291928 82.2787921,34.7291928 L82.2787921,34.7291928 Z" id="Fill-5" fill="#D8272C"></path>
                <path d="M43.1136785,363.678573 L43.226394,363.678573 L53.2017157,329.328039 L58.0484821,329.328039 L68.0238038,363.678573 L68.1365193,363.678573 L77.88641,329.328039 L82.169599,329.328039 L70.3908293,369.262651 L65.6567783,369.262651 L55.6250989,334.96852 L55.5123834,334.96852 L45.480704,369.262651 L40.746653,369.262651 L28.9678833,329.328039 L33.2510723,329.328039 L43.1136785,363.678573 Z M99.3587126,365.652742 L120.7183,365.652742 L120.7183,369.262651 L95.3009546,369.262651 L95.3009546,329.328039 L120.042007,329.328039 L120.042007,332.937947 L99.3587126,332.937947 L99.3587126,346.700723 L118.689421,346.700723 L118.689421,350.254227 L99.3587126,350.254227 L99.3587126,365.652742 Z M156.843617,329.328039 L170.087688,329.328039 C172.567442,329.328039 175.056551,329.74167 177.55509,330.568945 C180.05363,331.396219 182.307917,332.646514 184.31802,334.319865 C186.328123,335.993216 187.953089,338.080174 189.192966,340.5808 C190.432842,343.081426 191.052771,345.986245 191.052771,349.295345 C191.052771,352.642047 190.432842,355.556267 189.192966,358.038092 C187.953089,360.519916 186.328123,362.597473 184.31802,364.270824 C182.307917,365.944175 180.05363,367.19447 177.55509,368.021745 C175.056551,368.849019 172.567442,369.262651 170.087688,369.262651 L156.843617,369.262651 L156.843617,329.328039 Z M160.901375,365.652742 L168.960533,365.652742 C171.966295,365.652742 174.586904,365.182707 176.822439,364.242622 C179.057975,363.302537 180.908369,362.071044 182.373678,360.548106 C183.838987,359.025168 184.937952,357.286037 185.670606,355.33066 C186.403261,353.375283 186.769582,351.363532 186.769582,349.295345 C186.769582,347.227158 186.403261,345.215406 185.670606,343.260029 C184.937952,341.304652 183.838987,339.565521 182.373678,338.042583 C180.908369,336.519645 179.057975,335.288152 176.822439,334.348067 C174.586904,333.407982 171.966295,332.937947 168.960533,332.937947 L160.901375,332.937947 L160.901375,365.652742 Z M246.001577,349.295345 C246.001577,352.34122 245.475577,355.142631 244.42356,357.699663 C243.371544,360.256694 241.91565,362.465861 240.055835,364.327229 C238.19602,366.188597 235.998089,367.645707 233.461978,368.698602 C230.925866,369.751498 228.173757,370.277937 225.205568,370.277937 C222.237378,370.277937 219.485269,369.751498 216.949157,368.698602 C214.413046,367.645707 212.215116,366.188597 210.355301,364.327229 C208.495485,362.465861 207.039592,360.256694 205.987575,357.699663 C204.935558,355.142631 204.409558,352.34122 204.409558,349.295345 C204.409558,346.249469 204.935558,343.448058 205.987575,340.891027 C207.039592,338.333995 208.495485,336.124829 210.355301,334.26346 C212.215116,332.402092 214.413046,330.944982 216.949157,329.892087 C219.485269,328.839192 222.237378,328.312752 225.205568,328.312752 C228.173757,328.312752 230.925866,328.839192 233.461978,329.892087 C235.998089,330.944982 238.19602,332.402092 240.055835,334.26346 C241.91565,336.124829 243.371544,338.333995 244.42356,340.891027 C245.475577,343.448058 246.001577,346.249469 246.001577,349.295345 L246.001577,349.295345 Z M241.718388,349.295345 C241.718388,346.963934 241.342674,344.745366 240.591233,342.639576 C239.839793,340.533785 238.750221,338.681846 237.322484,337.083701 C235.894747,335.485557 234.157067,334.216461 232.109392,333.276376 C230.061717,332.336291 227.760465,331.866255 225.205568,331.866255 C222.65067,331.866255 220.349418,332.336291 218.301743,333.276376 C216.254068,334.216461 214.516388,335.485557 213.088651,337.083701 C211.660915,338.681846 210.571342,340.533785 209.819902,342.639576 C209.068461,344.745366 208.692747,346.963934 208.692747,349.295345 C208.692747,351.626755 209.068461,353.845323 209.819902,355.951113 C210.571342,358.056904 211.660915,359.899443 213.088651,361.478786 C214.516388,363.058128 216.254068,364.317823 218.301743,365.257908 C220.349418,366.197993 222.65067,366.668029 225.205568,366.668029 C227.760465,366.668029 230.061717,366.197993 232.109392,365.257908 C234.157067,364.317823 235.894747,363.058128 237.322484,361.478786 C238.750221,359.899443 239.839793,358.056904 240.591233,355.951113 C241.342674,353.845323 241.718388,351.626755 241.718388,349.295345 L241.718388,349.295345 Z M301.964823,335.758188 C301.100666,334.554879 299.992308,333.586606 298.639715,332.85334 C297.287123,332.120073 295.652764,331.753446 293.736591,331.753446 C292.759719,331.753446 291.764075,331.903857 290.74963,332.204684 C289.735186,332.505512 288.814685,332.966146 287.988101,333.586602 C287.161516,334.207059 286.494623,334.987317 285.987401,335.927402 C285.480178,336.867487 285.226571,337.976771 285.226571,339.255287 C285.226571,340.533802 285.470785,341.586682 285.959222,342.413957 C286.447658,343.241231 287.095766,343.946285 287.903564,344.529137 C288.711362,345.11199 289.631863,345.591426 290.665094,345.96746 C291.698324,346.343494 292.778504,346.719523 293.905664,347.095557 C295.295829,347.546797 296.695366,348.035634 298.104317,348.562082 C299.513268,349.08853 300.781304,349.774781 301.908465,350.620858 C303.035625,351.466934 303.956126,352.538615 304.669995,353.835933 C305.383863,355.13325 305.740792,356.778374 305.740792,358.771354 C305.740792,360.764334 305.355684,362.484664 304.585458,363.932395 C303.815231,365.380126 302.819588,366.574016 301.598497,367.514101 C300.377407,368.454186 298.987263,369.149839 297.428024,369.60108 C295.868785,370.05232 294.300177,370.277937 292.722152,370.277937 C291.519847,370.277937 290.31756,370.155728 289.115256,369.911306 C287.912951,369.666884 286.767022,369.300256 285.677433,368.811412 C284.587844,368.322568 283.573415,367.702121 282.634114,366.950053 C281.694814,366.197985 280.868242,365.33312 280.154373,364.355431 L283.648554,361.76081 C284.51271,363.189739 285.72439,364.383629 287.283629,365.342516 C288.842868,366.301402 290.674476,366.780839 292.778509,366.780839 C293.792954,366.780839 294.826169,366.621026 295.878186,366.301398 C296.930202,365.981769 297.878881,365.492932 298.724252,364.834872 C299.569622,364.176813 300.264694,363.368352 300.809489,362.409465 C301.354283,361.450578 301.626676,360.331894 301.626676,359.053378 C301.626676,357.662052 301.354283,356.505765 300.809489,355.584482 C300.264694,354.663199 299.541444,353.89234 298.639715,353.271884 C297.737987,352.651428 296.704772,352.134389 295.540039,351.720752 C294.375306,351.307114 293.154234,350.893483 291.876785,350.479846 C290.561765,350.066208 289.265549,349.596173 287.988101,349.069725 C286.710652,348.543278 285.564722,347.857026 284.550278,347.010949 C283.535833,346.164873 282.718654,345.121394 282.098716,343.880482 C281.478777,342.63957 281.168813,341.116655 281.168813,339.311692 C281.168813,337.393918 281.55392,335.739393 282.324147,334.348067 C283.094373,332.956742 284.09941,331.809855 285.339286,330.907373 C286.579163,330.004892 287.950521,329.346842 289.453402,328.933205 C290.956283,328.519567 292.440356,328.312752 293.905664,328.312752 C296.61085,328.312752 298.921495,328.792188 300.837668,329.751075 C302.753841,330.709961 304.200342,331.847447 305.177214,333.163566 L301.964823,335.758188 Z M360.915029,349.295345 C360.915029,352.34122 360.389028,355.142631 359.337012,357.699663 C358.284995,360.256694 356.829101,362.465861 354.969286,364.327229 C353.109471,366.188597 350.911541,367.645707 348.375429,368.698602 C345.839318,369.751498 343.087209,370.277937 340.119019,370.277937 C337.150829,370.277937 334.39872,369.751498 331.862609,368.698602 C329.326497,367.645707 327.128567,366.188597 325.268752,364.327229 C323.408937,362.465861 321.953043,360.256694 320.901026,357.699663 C319.84901,355.142631 319.323009,352.34122 319.323009,349.295345 C319.323009,346.249469 319.84901,343.448058 320.901026,340.891027 C321.953043,338.333995 323.408937,336.124829 325.268752,334.26346 C327.128567,332.402092 329.326497,330.944982 331.862609,329.892087 C334.39872,328.839192 337.150829,328.312752 340.119019,328.312752 C343.087209,328.312752 345.839318,328.839192 348.375429,329.892087 C350.911541,330.944982 353.109471,332.402092 354.969286,334.26346 C356.829101,336.124829 358.284995,338.333995 359.337012,340.891027 C360.389028,343.448058 360.915029,346.249469 360.915029,349.295345 L360.915029,349.295345 Z M356.63184,349.295345 C356.63184,346.963934 356.256125,344.745366 355.504685,342.639576 C354.753244,340.533785 353.663672,338.681846 352.235935,337.083701 C350.808198,335.485557 349.070519,334.216461 347.022843,333.276376 C344.975168,332.336291 342.673916,331.866255 340.119019,331.866255 C337.564122,331.866255 335.26287,332.336291 333.215195,333.276376 C331.16752,334.216461 329.42984,335.485557 328.002103,337.083701 C326.574366,338.681846 325.484794,340.533785 324.733353,342.639576 C323.981913,344.745366 323.606198,346.963934 323.606198,349.295345 C323.606198,351.626755 323.981913,353.845323 324.733353,355.951113 C325.484794,358.056904 326.574366,359.899443 328.002103,361.478786 C329.42984,363.058128 331.16752,364.317823 333.215195,365.257908 C335.26287,366.197993 337.564122,366.668029 340.119019,366.668029 C342.673916,366.668029 344.975168,366.197993 347.022843,365.257908 C349.070519,364.317823 350.808198,363.058128 352.235935,361.478786 C353.663672,359.899443 354.753244,358.056904 355.504685,355.951113 C356.256125,353.845323 356.63184,351.626755 356.63184,349.295345 L356.63184,349.295345 Z M380.471168,369.262651 L376.41341,369.262651 L376.41341,329.328039 L400.478169,329.328039 L400.478169,332.937947 L380.471168,332.937947 L380.471168,346.813533 L399.069225,346.813533 L399.069225,350.367036 L380.471168,350.367036 L380.471168,369.262651 Z M427.924393,369.262651 L423.866635,369.262651 L423.866635,332.937947 L410.509848,332.937947 L410.509848,329.328039 L441.28118,329.328039 L441.28118,332.937947 L427.924393,332.937947 L427.924393,369.262651 Z M463.936995,363.678573 L464.049711,363.678573 L474.025032,329.328039 L478.871799,329.328039 L488.84712,363.678573 L488.959836,363.678573 L498.709727,329.328039 L502.992916,329.328039 L491.214146,369.262651 L486.480095,369.262651 L476.448415,334.96852 L476.3357,334.96852 L466.304021,369.262651 L461.56997,369.262651 L449.7912,329.328039 L454.074389,329.328039 L463.936995,363.678573 Z M515.166189,369.262651 L510.713927,369.262651 L527.959399,329.328039 L531.904441,329.328039 L549.037197,369.262651 L544.528577,369.262651 L540.132673,358.771354 L519.505736,358.771354 L515.166189,369.262651 Z M521.027395,355.048636 L538.611013,355.048636 L529.819204,333.840424 L521.027395,355.048636 Z M566.00088,369.262651 L561.943122,369.262651 L561.943122,329.328039 L573.665534,329.328039 C575.619279,329.328039 577.432101,329.516053 579.104056,329.892087 C580.776011,330.268121 582.222512,330.879167 583.443603,331.725243 C584.664694,332.57132 585.613373,333.671203 586.289669,335.024925 C586.965966,336.378648 587.304109,338.033173 587.304109,339.988549 C587.304109,341.455082 587.041109,342.789983 586.5151,343.993292 C585.989092,345.1966 585.275235,346.240079 584.373506,347.123759 C583.471778,348.007439 582.400991,348.712492 581.161114,349.23894 C579.921238,349.765387 578.568665,350.103813 577.103356,350.254227 L588.76941,369.262651 L583.809929,369.262651 L572.76381,350.592655 L566.00088,350.592655 L566.00088,369.262651 Z M566.00088,347.095557 L573.045598,347.095557 C576.314364,347.095557 578.831652,346.503312 580.597537,345.318805 C582.363422,344.134298 583.246351,342.357564 583.246351,339.988549 C583.246351,338.67243 583.002137,337.563147 582.5137,336.660665 C582.025264,335.758183 581.348978,335.024928 580.484821,334.460877 C579.620665,333.896826 578.568664,333.483195 577.328787,333.219971 C576.088911,332.956747 574.717552,332.825137 573.214672,332.825137 L566.00088,332.825137 L566.00088,347.095557 Z M606.80389,365.652742 L628.163477,365.652742 L628.163477,369.262651 L602.746132,369.262651 L602.746132,329.328039 L627.487184,329.328039 L627.487184,332.937947 L606.80389,332.937947 L606.80389,346.700723 L626.134598,346.700723 L626.134598,350.254227 L606.80389,350.254227 L606.80389,365.652742 Z" id="WE-DO-SOFTWARE" fill="#1A1918"></path>
            </g>
        </g>
    </g>
</svg>