<?xml version="1.0" standalone="no"?>
<!DOCTYPE svg PUBLIC "-//W3C//DTD SVG 20010904//EN"
 "http://www.w3.org/TR/2001/REC-SVG-20010904/DTD/svg10.dtd">
<svg version="1.0" xmlns="http://www.w3.org/2000/svg"
 width="260.000000pt" height="260.000000pt" viewBox="0 0 260.000000 260.000000"
 preserveAspectRatio="xMidYMid meet">
<metadata>
Created by potrace 1.11, written by Peter Selinger 2001-2013
</metadata>
<g transform="translate(0.000000,260.000000) scale(0.100000,-0.100000)"
fill="#000000" stroke="none">
<path d="M1475 2364 c-116 -19 -244 -72 -337 -141 -117 -85 -217 -237 -254
-383 -22 -86 -22 -236 1 -320 47 -180 169 -339 332 -431 24 -13 43 -27 43 -30
0 -3 -17 -11 -38 -17 -21 -7 -76 -34 -121 -62 -46 -27 -87 -47 -92 -44 -5 3
-101 83 -215 179 -202 172 -224 186 -269 169 -23 -9 -48 -62 -41 -90 4 -14 62
-71 144 -141 75 -64 167 -142 203 -173 l67 -57 -57 -71 c-89 -111 -176 -305
-169 -376 3 -26 12 -36 67 -68 92 -53 290 -133 405 -162 271 -71 632 -56 893
35 169 59 366 163 422 223 18 19 22 31 17 53 -11 43 -90 206 -125 257 -88 128
-220 238 -370 309 l-91 44 59 37 c138 85 241 212 295 365 28 79 30 97 30 211
0 108 -4 136 -27 205 -74 225 -260 398 -492 460 -61 16 -226 27 -280 19z m512
-466 c69 -45 87 -87 91 -204 6 -147 -18 -208 -101 -255 -42 -24 -44 -24 -392
-27 -376 -3 -415 0 -474 45 -54 41 -71 92 -71 211 0 144 27 202 115 243 37 18
67 19 416 17 l375 -3 41 -27z"/>
<path d="M1312 1753 c-20 -8 -42 -59 -42 -96 0 -97 120 -123 150 -32 27 83
-36 157 -108 128z"/>
<path d="M1699 1747 c-40 -30 -50 -87 -24 -137 28 -54 103 -52 131 2 42 82
-40 186 -107 135z"/>
</g>
</svg>
