<svg version="1" xmlns="http://www.w3.org/2000/svg" width="346.667" height="346.667" viewBox="0 0 260 260"><path d="M147.5 23.6c-11.6 1.9-24.4 7.2-33.7 14.1-11.7 8.5-21.7 23.7-25.4 38.3-2.2 8.6-2.2 23.6.1 32 4.7 18 16.9 33.9 33.2 43.1 2.4 1.3 4.3 2.7 4.3 3 0 .3-1.7 1.1-3.8 1.7-2.1.7-7.6 3.4-12.1 6.2-4.6 2.7-8.7 4.7-9.2 4.4-.5-.3-10.1-8.3-21.5-17.9-20.2-17.2-22.4-18.6-26.9-16.9-2.3.9-4.8 6.2-4.1 9 .4 1.4 6.2 7.1 14.4 14.1 7.5 6.4 16.7 14.2 20.3 17.3l6.7 5.7-5.7 7.1c-8.9 11.1-17.6 30.5-16.9 37.6.3 2.6 1.2 3.6 6.7 6.8 9.2 5.3 29 13.3 40.5 16.2 27.1 7.1 63.2 5.6 89.3-3.5 16.9-5.9 36.6-16.3 42.2-22.3 1.8-1.9 2.2-3.1 1.7-5.3-1.1-4.3-9-20.6-12.5-25.7-8.8-12.8-22-23.8-37-30.9l-9.1-4.4 5.9-3.7c13.8-8.5 24.1-21.2 29.5-36.5 2.8-7.9 3-9.7 3-21.1 0-10.8-.4-13.6-2.7-20.5-7.4-22.5-26-39.8-49.2-46-6.1-1.6-22.6-2.7-28-1.9zm51.2 46.6c6.9 4.5 8.7 8.7 9.1 20.4.6 14.7-1.8 20.8-10.1 25.5-4.2 2.4-4.4 2.4-39.2 2.7-37.6.3-41.5 0-47.4-4.5-5.4-4.1-7.1-9.2-7.1-21.1 0-14.4 2.7-20.2 11.5-24.3 3.7-1.8 6.7-1.9 41.6-1.7l37.5.3 4.1 2.7z"/><path d="M131.2 84.7c-2 .8-4.2 5.9-4.2 9.6 0 9.7 12 12.3 15 3.2 2.7-8.3-3.6-15.7-10.8-12.8zm38.7.6c-4 3-5 8.7-2.4 13.7 2.8 5.4 10.3 5.2 13.1-.2 4.2-8.2-4-18.6-10.7-13.5z"/></svg>